<?xml version="1.0" encoding="utf-8"?>
<!-- Generator: Adobe Illustrator 19.1.0, SVG Export Plug-In . SVG Version: 6.00 Build 0)  -->
<svg version="1.1" id="Layer_1" xmlns="http://www.w3.org/2000/svg" xmlns:xlink="http://www.w3.org/1999/xlink" x="0px" y="0px"
	 viewBox="258 254 1544 500" style="enable-background:new 258 254 1544 500;" xml:space="preserve">
<style type="text/css">
	.st0{fill:#E6E6E6;}
	.st1{fill:#42A2CE;}
	.st2{fill:#0066A6;}
	.st3{fill:#9C5C8F;}
	.st4{fill:#FFFFFF;}
	.st5{fill:#010101;}
	.st6{fill:#231F20;}
	.st7{fill:#989898;}
	.st8{fill:#1E1E1E;}
</style>
<rect x="258" y="254" class="st0" width="384" height="340"/>
<rect x="642" y="254" class="st1" width="580" height="340"/>
<rect x="1222" y="254" class="st2" width="580" height="340"/>
<g>
	<path class="st3" d="M697.8,373.6h137.8c8.8,0,15.8,7.2,15.8,15.8V442c0,8.8-7,15.8-15.8,15.8H786l6.8,16.6L763,457.6h-65.4
		c-8.6,0-15.8-7.2-15.8-15.8v-52.6C682,380.8,689,373.6,697.8,373.6z"/>
	<path class="st4" d="M690.4,388c1-1.2,2.4-2,4.4-2c3.6-0.4,5.6,1.4,6,5c2,14.4,4.4,26.6,7,36.8l15.2-29c1.4-2.6,3.2-4,5.2-4.2
		c3.2-0.2,5,1.8,5.8,5.8c1.8,9.2,4,17,6.6,23.6c1.8-17.6,5-30.2,9.2-38c1-2,2.6-3,4.6-3c1.6-0.2,3,0.2,4.2,1.4c1.4,1.2,2,2.4,2.2,4
		c0,1.2-0.2,2.2-0.8,3.2c-2.8,5-5,13.4-6.8,25c-1.6,11.2-2.4,20-2,26.4c0.2,1.6-0.2,3.2-0.8,4.6c-1,1.6-2,2.4-3.8,2.4
		c-1.8,0.2-3.6-0.8-5.4-2.6c-6.4-6.6-11.6-16.4-15.2-29.6c-4.4,8.8-7.8,15.6-10,19.8c-4,7.8-7.6,11.8-10.4,12c-2,0.2-3.6-1.4-5-4.8
		c-3.6-9-7.2-26.6-11.4-52.4C689.2,390.8,689.6,389.2,690.4,388z"/>
	<path class="st4" d="M839.4,398.8c-2.4-4.2-6.2-7-11.2-8c-1.2-0.2-2.6-0.4-3.6-0.4c-6.6,0-12,3.6-16.4,10.4
		c-3.6,6-5.4,12.4-5.4,19.6c0,5.4,1,10,3.2,13.8c2.4,4.2,6,7,11,8c1.4,0.2,2.6,0.4,3.6,0.4c6.8,0,12.2-3.6,16.4-10.4
		c3.6-6,5.4-12.4,5.4-19.6C842.8,407,841.6,402.4,839.4,398.8L839.4,398.8z M830.6,418c-1,4.6-2.8,8-5.2,10.2c-2,1.8-4,2.6-5.6,2.2
		c-1.6-0.2-3-1.8-4-4.4c-1-2-1.4-4.2-1.4-6.2c0-1.8,0.2-3.6,0.4-5c0.6-2.8,1.8-5.6,3.6-8.2c2.4-3.4,4.8-4.8,7.2-4.4
		c1.8,0.4,3,1.8,4,4.4c1,2.2,1.4,4.4,1.4,6.4C831.2,414.8,831,416.4,830.6,418L830.6,418z"/>
	<path class="st4" d="M796,398.8c-2.4-4.2-6.2-7-11-8c-1.2-0.2-2.6-0.4-3.8-0.4c-6.6,0-12,3.6-16.2,10.4c-3.6,6-5.4,12.4-5.4,19.6
		c0,5.4,1.2,10,3.4,13.8c2.4,4.2,6,7,11,8c1.2,0.2,2.6,0.4,3.8,0.4c6.6,0,12-3.6,16.2-10.4c3.6-6,5.4-12.4,5.4-19.6
		C799.4,407,798.2,402.4,796,398.8L796,398.8z M787.2,418c-0.8,4.6-2.6,8-5.2,10.2c-2,1.8-4,2.6-5.6,2.2c-1.6-0.2-3-1.8-4-4.4
		c-1-2-1.2-4.2-1.2-6.2c0-1.8,0.2-3.6,0.4-5c0.6-2.8,1.8-5.6,3.6-8.2c2.4-3.4,4.6-4.8,7.2-4.4c1.8,0.4,3.2,1.8,4.2,4.4
		c0.8,2.2,1.2,4.4,1.2,6.4C787.8,414.8,787.6,416.4,787.2,418L787.2,418z"/>
	<g>
		<g>
			<path class="st5" d="M869,398.2c-4.6,4.6-7,10.4-7,17.6c0,7.6,2.2,13.8,7,18.2c4.6,4.6,10.6,7,18,7c2,0,4.6-0.2,7.2-1v-11.2
				c-2.4,0.8-4.4,1-6.2,1c-3.8,0-6.6-1.2-8.8-3.8c-2.2-2.4-3.4-5.8-3.4-10c0-4,1-7.2,3.2-9.8s5-3.8,8.4-3.8c2,0,4.4,0.2,7,1v-11.2
				c-2.2-0.6-5-1-7.6-1C879.6,391.4,873.6,393.6,869,398.2z M917,391.4c-6.4,0-11.4,2-15,6.4c-3.6,4.2-5.4,10.2-5.4,17.8
				c0,8.4,1.8,14.6,5.4,19c3.6,4.2,8.6,6.6,15.6,6.6c6.6,0,11.6-2.2,15.2-6.6s5.4-10.6,5.4-18.4c0-7.8-1.8-14-5.4-18.2
				C929,393.6,923.8,391.4,917,391.4z M922.4,427.2c-1.4,2-3.2,3-5.4,3s-4-1-5-3c-1.2-2-1.8-5.8-1.8-11.8c0-9,2.4-13.6,7-13.6
				c4.8,0,7.2,4.6,7.2,13.8C924.4,421.6,923.8,425.6,922.4,427.2z M972.2,392.8l-2.4,10.6c-0.6,2.8-1.2,5.4-1.8,8.2l-1.4,7.4
				c-1.4-7.4-3.2-16.2-5.4-26.2h-16l-6,47.2h12l3.2-32.4l8.4,32.4h8.6l8-32.4l3.4,32.4h12.6l-6.4-47.2H972.2L972.2,392.8z
				 M1030,392.8l-2.4,10.6c-0.6,2.8-1.4,5.4-1.8,8.2l-1.4,7.4c-1.4-7.4-3.2-16.2-5.4-26.2h-16l-6,47.2h12l3.2-32.4l8.4,32.4h8.6
				l7.8-32.4l3,32.4h12.6l-6.4-47.2H1030z M1069,421.2h11.2v-9.8H1069v-8.8h13v-10h-25.8V440h25.8v-10h-13V421.2L1069,421.2z
				 M1118,413.8c1.2-2.2,2-4.2,2-6.6c0-4.4-1.8-8-5.2-10.6s-8.2-4-14.2-4h-14.8v47.2h12.8v-21.6h0.2l10.4,21.6h13.6l-10.2-21.2
				C1114.8,417.4,1116.8,415.8,1118,413.8z M1098.4,413v-11.2c3,0,5.2,0.6,6.4,1.6c1.4,0.8,2,2.4,2,4.8
				C1107,411.2,1104,413,1098.4,413z M1127.6,398.2c-4.6,4.6-7,10.4-7,17.6c0,7.6,2.2,13.8,7,18.2c4.6,4.6,10.6,7,18,7
				c2,0,4.6-0.2,7.2-1v-11.2c-2.4,0.8-4.4,1-6.2,1c-3.8,0-6.6-1.2-8.8-3.8c-2.2-2.4-3.4-5.8-3.4-10c0-4,1-7.2,3.2-9.8s5-3.8,8.4-3.8
				c2,0,4.4,0.2,7,1v-11.2c-2.2-0.6-5-1-7.6-1C1138,391.4,1132,393.6,1127.6,398.2z M1168.8,429.8v-8.6h11.2v-9.8h-11.2v-8.8h13v-10
				H1156v47.2h26v-10L1168.8,429.8L1168.8,429.8z"/>
		</g>
	</g>
</g>
<g>
	<path class="st5" d="M556.2,296H362.8c-5.2,0-9.4,4.2-9.4,9.2v0.4c2.4-2.4,5.6-3.8,9.4-3.8h0.4l32.6,8H526c5,0,9.2,4.2,9.2,9.2v7
		h23.6c0,0,2,0,2,1.6s-2,1.6-2,1.6h-82.4l26.2,6.4H541c5,0,9.2,4.2,9.2,9.2v7h8.2c0,0,2,0,2,1.6s-2,1.6-2,1.6h-31v114.2h28.8
		c5,0,9.4-4.2,9.4-9.2V305C565.6,300.2,561.4,296,556.2,296z"/>
	<g>
		<path class="st5" d="M514.2,342.4L362.6,306c-5,0-9.2,4.2-9.2,9.2v85c5.6-18.8,21-33.6,39.8-36.2c2-0.4,4.4-0.4,6.4-0.4
			c23.6,0,42.4,19.6,42.4,44.6V435l15.8,9.6v73.2l56.2,17.6c5,0,9.4-4.2,9.4-9.2v-174C523.6,346.8,519.4,342.4,514.2,342.4z
			 M465,416.8c-5.6-1.2-10.2-7-10.2-12.8s4.6-9.2,10.2-8s10.4,7,10.4,12.8S470.6,418,465,416.8z M506.6,396.2
			c-0.2,10.2-0.8,20.8-4.6,29.2c-1,2-2,4.2-4.6,3.2c-9.8-3.6-9.6-22-12.8-30.2c-2-4.8-7.2-12.2-11.4-15c-3.8-2.6-7.6-3.6-11.8-3.4
			c-3.8,0.2-6.8,1.2-9.8,3.2c-1,0.8-2,1.8-2.8,2.8c-1.8,2.6-3.8,4.2-5.2,0c-2.6-9.8-3-20.2,1.6-27.6c3.4-5.2,9.8-10,17.2-6.2
			c1.6,0.8,2.8,1.8,4,3.2c9.6,10.4,12,25.6,24,34.2c6.2,4.4,9-5.8,13.4-7.6C507.4,380.8,506.6,395.8,506.6,396.2z"/>
		<path class="st6" d="M399.6,387.6c-0.8,0-1.6,0-2.4,0.2c-10.8,1.6-19.6,12.8-19.6,25V435l7-1.2h31V406
			C415.6,395.2,409,387.6,399.6,387.6z"/>
	</g>
	<path class="st7" d="M438.4,408c-0.2-22.8-17.2-40.8-38.6-40.8c-1.8,0-3.8,0.2-5.8,0.4c-21.8,3.2-38.8,24-38.8,47.4v29.2
		c0,2.4,4.2,4.6,9.4,4.6s9.2-2,9.2-4.6v-31.6c0-14,10.2-26.8,22.8-28.8c12.6-1.8,23,8,23,22v31.4c0,2.4,4.2,4.6,9.4,4.6
		c5,0,9.2-2,9.2-4.6V408H438.4z"/>
	<g>
		<polygon class="st7" points="418.4,460.4 443.6,495.2 418.4,552 454,530.4 454,446.4 		"/>
		<polygon class="st7" points="418.4,460.4 353.6,460.4 353.6,552 418.4,552 383.6,508 		"/>
	</g>
	<path class="st7" d="M442,438.8c-1,4-6.2,6.8-13,6.8c-7.4,0-13-3.4-13.2-8l0,0H385l-7.4,1.2v5.4c0,4.8-5.6,8.4-13.2,8.4
		s-13.2-3.6-13.2-8.4v-0.8l-16.6,3V538l15,12.4v-93.8h68l0,0L450,444L442,438.8z"/>
	<path class="st7" d="M418.4,467l-29.8,41l28.8,36.4l21.6-48.8L418.4,467z M411.2,526.2l2.2-20.8c-3-1.6-5-5.4-5-9.6
		c0-5.8,3.6-10.4,8-10.4s8,4.8,8,10.4c0,3.8-1.6,7-3.8,8.8l2.8,17.8L411.2,526.2z"/>
</g>
<rect x="258" y="594" class="st8" width="1544" height="160"/>
<path class="st4" d="M1335.2,471.3v-11.7c-8.6,9.7-17.2,13.8-29.9,13.8c-26.3,0-45.3-19.7-45.3-46.8c0-27.5,19.2-47.4,45.8-47.4
	c13,0,21.9,4.2,29.4,14.1v-12h19.8v90H1335.2z M1308.1,399c-15.4,0-26.3,11.7-26.3,28.1c0,15.8,10.9,26.5,26.6,26.5
	c16.4,0,26.2-11.7,26.2-26.6C1334.6,410.5,1323.5,399,1308.1,399z"/>
<path class="st4" d="M1371.1,471.3v-90h21.6v90H1371.1z M1371.3,368.3v-21.6h21.6v21.6H1371.3z"/>
<path class="st4" d="M1431.7,421.2v50h-21.6v-90h19.8v8.8c5.7-8.3,10.2-10.9,19.5-10.9h1.6V400
	C1438,400.3,1431.7,407.3,1431.7,421.2z"/>
<path class="st4" d="M1511.3,473.4c-11,0-19.5-3.2-27.6-10.6v38.5h-21.6V381.3h19.8v10.6c7-8.1,17.4-12.7,29.6-12.7
	c26,0,44.8,19.7,44.8,46.8C1556.3,453.2,1537.3,473.4,1511.3,473.4z M1508.7,399c-14.9,0-26.3,11.7-26.3,27.1
	c0,15.8,11.4,27.5,26.6,27.5c14.3,0,25.5-11.9,25.5-27.1C1534.5,410.8,1523.3,399,1508.7,399z"/>
<path class="st4" d="M1640.6,471.3v-11.7c-8.6,9.7-17.2,13.8-29.9,13.8c-26.3,0-45.3-19.7-45.3-46.8c0-27.5,19.2-47.4,45.8-47.4
	c13,0,21.9,4.2,29.4,14.1v-12h19.8v90H1640.6z M1613.5,399c-15.4,0-26.3,11.7-26.3,28.1c0,15.8,10.9,26.5,26.6,26.5
	c16.4,0,26.2-11.7,26.2-26.6C1640,410.5,1628.9,399,1613.5,399z"/>
<path class="st4" d="M1708,501.3h-23.2l16.9-38.5l-33-81.5h24.7l20,58.3l21.8-58.3h24.9L1708,501.3z"/>
</svg>
