<?xml version="1.0" encoding="utf-8"?>
<!-- Generator: Adobe Illustrator 19.1.0, SVG Export Plug-In . SVG Version: 6.00 Build 0)  -->
<svg version="1.1" id="Layer_1" xmlns="http://www.w3.org/2000/svg" xmlns:xlink="http://www.w3.org/1999/xlink" x="0px" y="0px"
	 viewBox="0 256 256 256" style="enable-background:new 0 256 256 256;" xml:space="preserve">
<style type="text/css">
	.st0{fill:#42A2CE;}
	.st1{fill:#9C5C8F;}
	.st2{fill:#FFFFFF;}
	.st3{fill:#0066A6;}
</style>
<rect y="256" class="st0" width="256" height="128"/>
<g>
	<path class="st1" d="M47.3,265.1h162.6c10.3,0,18.6,8.4,18.6,18.6v62.1c0,10.3-8.4,18.6-18.6,18.6h-58.4l8,19.6l-35.3-19.7H47.1
		c-10.3,0-18.6-8.4-18.6-18.6v-62.1C28.6,273.6,37,265.1,47.3,265.1z"/>
	<path class="st2" d="M38.6,282.1c1.1-1.5,2.8-2.4,5.1-2.5c4.1-0.4,6.5,1.7,7.1,5.9c2.5,17.1,5.3,31.5,8.3,43.4L77,294.8
		c1.7-3.1,3.8-4.7,6.1-5c3.7-0.2,5.8,2,6.7,6.8c2,10.9,4.6,20.1,7.8,28c2.1-20.8,5.8-35.6,10.7-45c1.2-2.4,3.1-3.4,5.4-3.7
		c1.9-0.2,3.7,0.4,5.1,1.7c1.5,1.3,2.4,2.8,2.5,4.6c0.1,1.5-0.2,2.7-0.8,3.9c-3.2,5.9-5.8,15.8-7.9,29.5c-2,13.3-2.8,23.7-2.4,31.1
		c0.2,2-0.2,3.8-1.1,5.4c-1.1,1.8-2.4,2.8-4.4,3c-2.1,0.2-4.4-0.8-6.4-3.1c-7.6-7.8-13.7-19.3-17.9-34.8
		c-5.3,10.5-9.2,18.3-11.8,23.5c-4.8,9.2-9,13.9-12.4,14.2c-2.2,0.2-4.1-1.7-5.8-5.7c-4.1-10.7-8.6-31.4-13.5-62
		C37.1,285.4,37.6,283.5,38.6,282.1z"/>
	<path class="st2" d="M214.2,294.8c-2.9-5.1-7.2-8.3-13.1-9.4c-1.5-0.4-3.1-0.5-4.4-0.5c-7.8,0-14.2,4.1-19.2,12.3
		c-4.2,7-6.4,14.6-6.4,23c0,6.4,1.3,11.7,3.9,16.2c2.9,5.1,7.2,8.3,13.1,9.4c1.5,0.4,3.1,0.5,4.4,0.5c7.9,0,14.3-4.1,19.2-12.3
		c4.2-7.1,6.4-14.6,6.4-23.1C218.4,304.6,216.9,299.2,214.2,294.8L214.2,294.8z M204,317.6c-1.1,5.4-3.2,9.4-6.3,12
		c-2.4,2.1-4.6,3.1-6.6,2.6c-2-0.4-3.7-2.1-4.8-5.3c-1.1-2.5-1.5-5.1-1.5-7.4c0-2,0.2-4.1,0.6-5.9c0.7-3.3,2.1-6.6,4.4-9.8
		c2.7-4,5.5-5.7,8.5-5.1c2,0.4,3.7,2.1,4.8,5.3c1.1,2.5,1.5,5.1,1.5,7.4C204.7,313.6,204.4,315.6,204,317.6L204,317.6z"/>
	<path class="st2" d="M163.1,294.8c-2.9-5.1-7.3-8.3-13.1-9.4c-1.5-0.4-3.1-0.5-4.4-0.5c-7.8,0-14.2,4.1-19.2,12.3
		c-4.2,7-6.4,14.6-6.4,23c0,6.4,1.3,11.7,3.9,16.2c2.9,5.1,7.2,8.3,13.1,9.4c1.5,0.4,3.1,0.5,4.4,0.5c7.9,0,14.3-4.1,19.2-12.3
		c4.2-7.1,6.4-14.6,6.4-23.1C167,304.6,165.7,299.2,163.1,294.8L163.1,294.8z M152.7,317.6c-1.1,5.4-3.2,9.4-6.3,12
		c-2.4,2.1-4.6,3.1-6.6,2.6c-2-0.4-3.7-2.1-4.8-5.3c-1.1-2.5-1.5-5.1-1.5-7.4c0-2,0.2-4.1,0.6-5.9c0.7-3.3,2.1-6.6,4.4-9.8
		c2.7-4,5.5-5.7,8.5-5.1c2,0.4,3.7,2.1,4.8,5.3c1.1,2.5,1.5,5.1,1.5,7.4C153.5,313.6,153.2,315.6,152.7,317.6L152.7,317.6z"/>
</g>
<rect y="384" class="st3" width="256" height="128"/>
<path class="st2" d="M44.1,470.7v-5.6c-4.1,4.7-8.3,6.6-14.3,6.6c-12.6,0-21.8-9.4-21.8-22.5c0-13.2,9.2-22.8,22-22.8
	c6.2,0,10.5,2,14.1,6.8v-5.8h9.5v43.2H44.1z M31.1,436c-7.4,0-12.6,5.6-12.6,13.5c0,7.6,5.2,12.7,12.8,12.7
	c7.9,0,12.6-5.6,12.6-12.8C43.8,441.5,38.5,436,31.1,436z"/>
<path class="st2" d="M61.3,470.7v-43.2h10.4v43.2H61.3z M61.4,421.3v-10.4h10.4v10.4H61.4z"/>
<path class="st2" d="M90.4,446.7v24H80v-43.2h9.5v4.2c2.7-4,4.9-5.2,9.4-5.2h0.8v10C93.5,436.6,90.4,440,90.4,446.7z"/>
<path class="st2" d="M128.6,471.7c-5.3,0-9.4-1.6-13.3-5.1v18.5H105v-57.6h9.5v5.1c3.4-3.9,8.3-6.1,14.2-6.1
	c12.5,0,21.5,9.4,21.5,22.5C150.2,462,141.1,471.7,128.6,471.7z M127.4,436c-7.2,0-12.6,5.6-12.6,13c0,7.6,5.5,13.2,12.8,13.2
	c6.9,0,12.2-5.7,12.2-13C139.8,441.7,134.4,436,127.4,436z"/>
<path class="st2" d="M190.7,470.7v-5.6c-4.1,4.7-8.3,6.6-14.3,6.6c-12.6,0-21.8-9.4-21.8-22.5c0-13.2,9.2-22.8,22-22.8
	c6.2,0,10.5,2,14.1,6.8v-5.8h9.5v43.2H190.7z M177.7,436c-7.4,0-12.6,5.6-12.6,13.5c0,7.6,5.2,12.7,12.8,12.7
	c7.9,0,12.6-5.6,12.6-12.8C190.4,441.5,185.1,436,177.7,436z"/>
<path class="st2" d="M223,485.1h-11.2l8.1-18.5l-15.8-39.1H216l9.6,28l10.4-28H248L223,485.1z"/>
</svg>
